# xmcd CD database file
#
# Track frame offsets:
#	150
#	23350
#	45507
#	67585
#	89090
#	111675
#	133312
#	156237
#	178880
#
# Disc length: 2686 seconds
#
# Revision: 0
# Processed by: cddbd v1.4PL0 Copyright (c) Steve Scherf et al.
# Submitted via: CDex 1.51
#
DISCID=790a7c09
DTITLE=Danny Rojo - Danny Rojo
DYEAR=1900
DGENRE=Salsa
TTITLE0=El Waniki
TTITLE1=No Me Hagas Eso
TTITLE2=Bien Buenas
TTITLE3=Valentina
TTITLE4=Coco Chanel
TTITLE5=Nada Que Ver
TTITLE6=Tiene Bamboleo
TTITLE7=Te Pido Que Te Vayas
TTITLE8=Nadia Ha Sido Fiel
EXTD=
EXTT0=
EXTT1=
EXTT2=
EXTT3=
EXTT4=
EXTT5=
EXTT6=
EXTT7=
EXTT8=
PLAYORDER=
